# xmcd
# 
# Track frame offsets:
#     150
#     25740
#     61762
#     81547
#     104980
#     130802
#     153522
#     179647
#     194910
#     231542
#     259670
#     290897
#     313997
# 
# Disc length: 4497
# 
# Revision: 6
# Processed by: cddbd v1.5.2PL0 Copyright (c) Steve Scherf et al.
# Submitted via: BonkEnc v1.0.8
# 
DISCID=d4118f0d
DTITLE=Tomasz Stanko - Soul Of Things
DYEAR=2001
DGENRE=Contemporary Jazz
TTITLE0=Soul Of Things I
TTITLE1=Soul Of Things II
TTITLE2=Soul Of Things III
TTITLE3=Soul Of Things IV
TTITLE4=Soul Of Things V
TTITLE5=Soul Of Things VI
TTITLE6=Soul Of Things VII
TTITLE7=Soul Of Things VIII
TTITLE8=Soul Of Things IX
TTITLE9=Soul Of Things X
TTITLE10=Soul Of Things XI
TTITLE11=Soul Of Things XII
TTITLE12=Soul Of Things XIII
EXTD=YEAR: 2002
EXTT0=
EXTT1=
EXTT2=
EXTT3=
EXTT4=
EXTT5=
EXTT6=
EXTT7=
EXTT8=
EXTT9=
EXTT10=
EXTT11=
EXTT12=
PLAYORDER=
